<svg width="40" height="34" viewBox="0 0 40 34" fill="none" xmlns="http://www.w3.org/2000/svg">
<path d="M3.70836 2.55652C3.63701 2.42694 3.56646 2.19528 3.42976 2.071C3.32307 2.15828 3.20967 2.45697 3.14751 2.58599C3.00538 2.881 2.87774 3.21398 2.87774 3.54745C2.87774 4.02673 2.86065 4.509 2.87774 4.9878C2.89655 5.51486 3.08108 6.0191 3.19721 6.53129C3.26759 6.84171 3.325 7.13503 3.325 7.45591C3.325 7.6219 3.43696 7.78451 3.45278 7.9569C3.47468 8.19549 3.66949 8.4657 3.75805 8.68628C3.8751 8.97782 3.96123 9.36113 4.02073 9.66984C4.1343 10.2592 4.4698 10.6381 4.79455 11.1249C5.20125 11.7346 5.57909 12.5626 6.13277 13.0294C6.2151 13.0988 6.65215 13.593 6.42384 13.593C6.18806 13.593 5.97397 13.5593 5.74586 13.4936C5.1348 13.3174 4.6277 13.143 4.10592 12.731C3.59701 12.3292 2.96959 11.984 2.39854 11.7033C2.14168 11.577 2.20907 11.6188 2.24235 11.8433C2.2892 12.1593 2.50925 12.4866 2.62216 12.7826C2.87126 13.4357 3.16163 14.1002 3.48828 14.7166C3.68254 15.0831 3.95919 15.5167 4.21596 15.8364C4.41601 16.0856 4.60936 16.557 4.85845 16.7242C5.05209 16.8543 5.13537 17.1958 5.3057 17.3726C5.46615 17.5391 5.58279 17.7331 5.68906 17.9399C5.97442 18.4951 6.48695 18.7078 6.98114 19.0155C7.5089 19.3441 8.04622 19.6238 8.56428 19.9586C8.90931 20.1815 9.38685 20.4227 9.79956 20.4227C10.2448 20.4227 8.97056 20.7719 8.53588 20.8721C8.01196 20.993 7.45145 20.8206 6.93144 20.8206C6.31012 20.8206 5.83938 20.3864 5.2915 20.1427C5.08396 20.0504 4.92918 19.9055 4.78035 19.7449C4.60856 19.5595 4.5567 19.5039 4.63482 19.7633C4.98429 20.9239 5.88878 21.8641 6.42384 22.9129C6.7297 23.5125 7.36485 24.0144 7.81176 24.4822C8.28901 24.9818 8.66634 25.265 9.33101 25.4621C10.2528 25.7354 11.1766 25.7936 12.1281 25.7936C12.3263 25.7936 12.5361 25.8267 12.7174 25.742C12.8758 25.6681 13.2028 25.5589 13.3741 25.5984C13.3748 25.5986 12.5936 26.4283 12.5257 26.4714C12.0292 26.7863 11.5873 27.1988 11.0881 27.5176C10.4089 27.9513 9.68161 28.1699 8.95474 28.5196C8.39188 28.7904 7.75866 28.8118 7.18702 29.0095C6.58127 29.2191 5.88429 29.2728 5.25601 29.4111C4.52269 29.5725 3.80316 29.599 3.05522 29.5731C2.19591 29.5434 1.33195 29.5068 0.463976 29.5068C0.388219 29.5068 -0.193522 29.4926 0.0664145 29.5068C0.274588 29.5182 0.382709 29.6815 0.549167 29.7758C0.994412 30.0278 1.43387 30.2884 1.88384 30.5346C2.17851 30.6958 2.60304 30.8292 2.86354 31.0319C3.34852 31.4094 3.9656 31.3478 4.44669 31.6655C5.17099 32.1439 5.85434 32.383 6.69007 32.5865C7.24465 32.7215 7.97865 32.7805 8.50039 33.0211C9.11146 33.303 9.76618 33.4853 10.4243 33.4853C12.1013 33.4853 13.7197 33.6842 15.3974 33.6842C15.9855 33.6842 16.4115 33.5164 16.9699 33.3674C17.3317 33.2708 17.6919 33.1378 18.049 33.0211C18.4061 32.9045 18.7467 32.9759 19.1067 33.0175C19.6382 33.0787 20.2556 32.7385 20.7538 32.5717C21.2982 32.3895 21.8529 32.123 22.3653 31.8571C22.6537 31.7074 22.8551 31.4278 23.1356 31.2677C23.4143 31.1086 23.7211 31.0057 23.9946 30.833C24.2279 30.6857 24.4205 30.6915 24.63 30.5051C24.8019 30.3522 24.9362 30.1693 25.127 30.0373C25.5308 29.7579 25.965 29.5427 26.3587 29.2416C27.2391 28.5684 27.9001 27.6371 28.7192 26.9061C29.2036 26.4738 29.6158 26.0501 29.9722 25.4952C30.127 25.2544 30.3843 25.0513 30.5544 24.8101C30.9701 24.2204 31.4456 23.5888 31.7719 22.9424C31.9826 22.525 32.0752 22.0677 32.2689 21.6457C32.4816 21.1821 32.7821 20.7455 32.9717 20.2754C33.0994 19.9589 33.1627 19.6287 33.2912 19.3102C33.3909 19.0631 33.5464 18.8542 33.6426 18.5993C33.778 18.2402 34.0437 17.771 34.0579 17.3873C34.072 17.0062 34.4661 16.5762 34.601 16.2122C34.7322 15.8581 34.8624 15.4814 34.9417 15.1107C34.9897 14.8866 34.9409 14.6627 35.0021 14.4403C35.103 14.0737 35.0825 13.6628 35.1476 13.291C35.1888 13.0561 35.2092 12.826 35.2719 12.5984C35.3165 12.4364 35.4509 12.2905 35.4635 12.1195C35.4944 11.7031 35.8469 11.3372 35.8469 10.9076C35.8469 10.5723 35.8675 10.2376 35.7972 9.90929C35.6967 9.44002 35.7957 9.27188 36.1664 9.06939C36.4102 8.93622 36.6032 8.69459 36.8408 8.55367C37.0244 8.44477 37.3799 8.02139 37.4585 7.80955C37.6131 7.39223 38.037 7.0098 38.3068 6.66759C38.5152 6.40333 38.6414 6.13182 38.8002 5.83506C38.97 5.51791 39.2758 5.24464 39.4569 4.91044C39.6086 4.6305 40 4.17985 40 3.84583C40 3.77169 39.7281 4.0026 39.6805 4.03002C39.5483 4.10625 39.4026 4.18031 39.2652 4.24368C38.6168 4.54275 37.9138 4.83871 37.3023 5.23829C37.02 5.42273 36.6396 5.54575 36.3261 5.66561C36.2116 5.70937 35.39 6.06075 35.3003 5.96767C35.2829 5.94961 36.1539 5.11864 36.1983 5.07252C36.5094 4.74968 36.7522 4.37404 37.0609 4.04476C37.36 3.72577 37.6579 3.30874 37.888 2.95068C38.0813 2.64974 38.3015 2.38601 38.4524 2.05553C38.5926 1.74824 38.713 1.20328 38.7221 0.861997C38.7243 0.781354 38.7793 0.354046 38.7221 0.2947C38.7074 0.279441 38.4602 0.53924 38.4346 0.55993C37.7456 1.11606 37.0174 1.63651 36.39 2.28761C36.1601 2.52616 35.6402 2.71073 35.3216 2.71861C34.8685 2.7298 34.4105 2.78491 33.9656 2.78491C33.7374 2.78491 33.6086 2.48075 33.4686 2.3355C33.3045 2.16511 33.123 2.04235 32.9433 1.88976C32.6895 1.67424 32.4284 1.36665 32.0772 1.32615C31.8449 1.29937 31.5592 0.962147 31.3424 0.858314C30.9536 0.672109 30.6235 0.416233 30.2243 0.250495C29.9031 0.117184 29.5174 0 29.17 0C27.6546 0 26.2509 0.729383 24.7578 0.729383C24.0365 0.729383 23.5673 1.58755 22.9546 1.84188C22.2733 2.12468 22.0579 2.97175 21.4708 3.33011C21.2432 3.46908 20.9444 3.94423 20.7999 4.17737C20.6301 4.45147 20.5371 4.75231 20.3988 5.03937C20.1635 5.52781 19.9756 6.06074 19.7599 6.56444C19.523 7.11759 19.6179 7.85561 19.6179 8.45789C19.6179 8.98345 19.7071 9.48424 19.8131 9.97928C19.8797 10.2903 20.1074 10.6092 19.6818 10.6092C19.4791 10.6092 19.1255 10.6789 18.947 10.576C18.7131 10.4412 18.2929 10.438 18.0206 10.4066C17.8349 10.3852 17.6633 10.298 17.481 10.2629C17.0044 10.1713 16.4059 10.2005 15.9476 10.0419C15.1687 9.77249 14.5172 9.12649 13.7219 8.92573C13.4064 8.84608 13.1402 8.7045 12.8452 8.5684C12.7273 8.51402 12.5886 8.49425 12.4618 8.43579C12.3365 8.37801 12.2415 8.28261 12.1104 8.22213C11.8321 8.09379 11.6389 7.82334 11.3259 7.7064C11.1032 7.62321 10.9003 7.54454 10.7012 7.42644C10.4405 7.27185 10.1808 7.06238 9.92025 6.89598C9.60245 6.69302 9.17537 6.66985 8.81986 6.56444C8.56572 6.48909 8.25811 6.2946 8.03893 6.13713C7.55891 5.79225 7.04741 5.5637 6.51968 5.28987C6.29362 5.17257 6.0724 5.03725 5.85235 4.90675C5.6365 4.77875 5.45771 4.46476 5.24181 4.32472C5.11963 4.24548 4.79185 3.95556 4.73066 3.81268C4.6475 3.61851 4.37891 3.50893 4.2692 3.31538C4.11421 3.04193 3.86082 2.83341 3.70836 2.55652Z" fill="#CCFF00"/>
</svg>
